# xmcd CD database file
#
# Track frame offsets:
#	150
#	12825
#	29887
#	46012
#	60000
#	74625
#	88500
#	101700
#	117225
#	134025
#	152100
#	165112
#	183300
#	198000
#	209062
#	221400
#	237000
#	252525
#
# Disc length: 3630 seconds
#
# Revision: 1
# Processed by: cddbd v1.5.2PL0 Copyright (c) Steve Scherf et al.
# Submitted via: CDex 1.51
#
DISCID=f90e2c12
DTITLE=Diverse - Country Night - SWF4  CD 01
DYEAR=1900
DGENRE=Country
TTITLE0=I want you - L.A.
TTITLE1=Nothin to lose - Dee Hart
TTITLE2=Country Romance - Chuck Drum
TTITLE3=Country Music Lives Forever - Helt Oncale
TTITLE4=Truckers Welcome - Twin Peaks
TTITLE5=In You Presence - Wild Bunch
TTITLE6=Plenty More Love - Jill Morris
TTITLE7=Austin City Limit Song - Autumn Leaves
TTITLE8=Pay The Price - Kevin Henderson
TTITLE9=Le lion et la gazelle - Yannick Monot
TTITLE10=The part Where I Cry - H. Lammers Mayer
TTITLE11=Takin My Last Chance - Daniel T. Coates
TTITLE12=A Song For You - Cripple Creek Band
TTITLE13=One Of These Days - Foreign Affairs
TTITLE14=Watch Your Step - Chris Paulsen
TTITLE15=Far Away From Home - Carry N Ron
TTITLE16=Baby Come Back - West Point
TTITLE17=Hold On - Lonnie Dale
EXTD=
EXTT0=
EXTT1=
EXTT2=
EXTT3=
EXTT4=
EXTT5=
EXTT6=
EXTT7=
EXTT8=
EXTT9=
EXTT10=
EXTT11=
EXTT12=
EXTT13=
EXTT14=
EXTT15=
EXTT16=
EXTT17=
PLAYORDER=
